<svg width="128" height="71" viewBox="0 0 128 71" fill="none" xmlns="http://www.w3.org/2000/svg">
<path d="M11.3678 55.4146H3.35221V27.0008H11.3678V38.25H17.5914V27.0008H25.6069V55.4146H17.5914V43.8261H11.3678V55.4146ZM37.0311 44.4321C37.0311 47.1151 37.233 48.9819 37.6365 50.0325C38.0563 51.0831 38.7828 51.6083 39.816 51.6083C40.5748 51.6083 41.1478 51.4225 41.5353 51.0507C41.9228 50.6628 42.2134 49.8789 42.4071 48.6991C42.6169 47.503 42.7219 45.7171 42.7219 43.3412V37.4984C42.7219 35.1871 42.4958 33.4658 42.0438 32.3344C41.5919 31.2031 40.8491 30.6374 39.816 30.6374C38.7828 30.6374 38.0563 31.195 37.6365 32.3102C37.233 33.4093 37.0311 35.4216 37.0311 38.3469V44.4321ZM39.3074 55.9238C37.9674 55.9238 36.7566 55.8025 35.675 55.5601C34.6095 55.3177 33.6893 54.9782 32.9143 54.5419C32.1394 54.1055 31.4614 53.5479 30.8802 52.869C30.3151 52.1902 29.855 51.4629 29.4998 50.6871C29.1608 49.9113 28.8863 49.0061 28.6765 47.9718C28.4667 46.9211 28.3214 45.8786 28.2406 44.8443C28.1598 43.7937 28.1195 42.6139 28.1195 41.3047C28.1195 39.3652 28.2164 37.6762 28.4101 36.2377C28.6199 34.7992 28.9994 33.4497 29.5483 32.189C30.0971 30.9122 30.8236 29.8777 31.7277 29.0858C32.648 28.2938 33.8264 27.6715 35.2633 27.219C36.7163 26.7665 38.4275 26.5401 40.3971 26.5401C41.7533 26.5401 42.9722 26.6695 44.0538 26.9281C45.1354 27.1705 46.0637 27.5099 46.8387 27.9463C47.6136 28.3827 48.2835 28.9484 48.8486 29.6434C49.4298 30.3383 49.8899 31.0819 50.2289 31.8738C50.584 32.6496 50.8667 33.5627 51.0765 34.6134C51.2863 35.664 51.4316 36.7065 51.5124 37.7408C51.5932 38.7752 51.6335 39.947 51.6335 41.2562C51.6335 43.1957 51.5285 44.8846 51.3187 46.3232C51.1088 47.7617 50.7293 49.1112 50.1805 50.3719C49.6317 51.6165 48.897 52.6347 47.9768 53.4266C47.0566 54.2024 45.87 54.8167 44.417 55.2692C42.9802 55.7056 41.2771 55.9238 39.3074 55.9238ZM62.1167 45.9595V55.4146H54.0769V27.0008H57.2734C58.0483 27.0008 59.2026 26.9684 60.7363 26.9038C62.2701 26.8229 63.5373 26.7826 64.5383 26.7826C68.0254 26.7826 70.6247 27.5503 72.3359 29.0858C74.0634 30.6213 74.927 32.9729 74.927 36.1407C74.927 38.0157 74.5154 39.6803 73.692 41.135C72.8848 42.5896 71.8113 43.7452 70.4713 44.6019C71.1978 44.7797 71.8192 45.1918 72.3359 45.8383C72.8687 46.4847 73.2803 47.2526 73.5709 48.1415C73.8615 49.0142 74.1118 49.9031 74.3216 50.8083C74.5477 51.6972 74.7978 52.5781 75.0723 53.4509C75.3629 54.3237 75.6778 54.9782 76.0168 55.4146H67.081C66.9034 55.1883 66.7662 54.558 66.6693 53.5236C66.5725 52.473 66.4353 51.2204 66.2576 49.7658C66.0963 48.2951 65.8621 47.0666 65.5554 46.0807C65.523 46.0807 65.4827 46.0807 65.4343 46.0807C65.1276 46.0807 64.7965 46.0807 64.4414 46.0807C64.1024 46.0646 63.8037 46.0484 63.5454 46.0322C63.2872 46.0161 63.0127 45.9999 62.7221 45.9838C62.4476 45.9677 62.2459 45.9595 62.1167 45.9595ZM62.1167 41.4501H62.8916C63.2951 41.4501 63.6342 41.434 63.9087 41.4017C64.1832 41.3693 64.4817 41.3128 64.8047 41.232C65.1437 41.135 65.4182 40.9895 65.628 40.7956C65.8541 40.6016 66.0639 40.351 66.2576 40.044C66.4514 39.737 66.5967 39.3409 66.6935 38.856C66.7904 38.3712 66.8388 37.8054 66.8388 37.159V35.2437C66.8388 33.8376 66.4675 32.8597 65.7249 32.3102C64.9984 31.7444 63.949 31.4617 62.5768 31.4617H62.1167V41.4501ZM82.0658 55.4146V33.4254H76.3992V27.0008H95.9175V33.4254H90.2509V55.4146H82.0658Z" fill="white"/>
<path d="M12.1081 25.9756H3.45946V65.8049H12.1081V25.9756Z" fill="white"/>
<path d="M117.622 58.878H3.45946V67.5366H117.622V58.878Z" fill="white"/>
<path d="M100.093 52.8685L106.985 31.4398L101.841 30.3882L103.724 24.5364C104.795 24.7201 105.708 24.8325 106.462 24.8734C107.216 24.9144 108.039 24.8664 108.931 24.7295C109.823 24.5925 110.653 24.2737 111.419 23.7729C112.186 23.2722 112.903 22.5834 113.568 21.7063L119.633 23.6612L109.286 55.832L100.093 52.8685Z" fill="#35D927"/>
<path d="M22.1791 65.3766C21.8375 65.7186 21.4312 65.8897 20.9603 65.8897C20.6267 65.8897 20.3375 65.8319 20.0925 65.716C19.8504 65.6002 19.658 65.4331 19.5153 65.2149C19.3728 64.9967 19.2678 64.7475 19.2005 64.4675C19.136 64.1873 19.1037 63.8681 19.1037 63.5099C19.1037 63.2432 19.1171 63.0033 19.1441 62.7905C19.1737 62.5777 19.2208 62.3744 19.2853 62.1804C19.35 61.9865 19.4387 61.8195 19.5517 61.6794C19.6648 61.5366 19.8033 61.4127 19.9675 61.3076C20.1316 61.2025 20.3307 61.1244 20.5648 61.0733C20.7988 61.0195 21.0652 60.9925 21.3639 60.9925C21.4985 60.9925 21.6263 61.0006 21.7474 61.0167C21.871 61.0328 21.976 61.0531 22.0622 61.0773C22.1481 61.0988 22.2289 61.1272 22.3043 61.1622C22.3824 61.1946 22.4429 61.2242 22.486 61.251C22.5316 61.2753 22.5733 61.3023 22.611 61.3319C22.6487 61.3615 22.6716 61.3818 22.6797 61.3925C22.6904 61.4032 22.6986 61.4114 22.7039 61.4167L22.6434 62.3461H21.9088L21.6787 61.8086C21.6195 61.7764 21.5241 61.7601 21.3921 61.7601C21.2845 61.7601 21.1958 61.7697 21.1257 61.7885C21.0558 61.8074 20.9858 61.8478 20.9159 61.9098C20.8486 61.969 20.7948 62.0564 20.7545 62.1723C20.7168 62.2855 20.6858 62.4403 20.6616 62.6371C20.6374 62.831 20.6253 63.0681 20.6253 63.3481C20.6253 63.9327 20.6563 64.3663 20.7182 64.6493C20.7827 64.9321 20.9105 65.0736 21.1015 65.0736C21.1958 65.0736 21.2752 65.0654 21.3397 65.0493C21.4042 65.0305 21.4647 64.9981 21.5213 64.9524C21.5779 64.9039 21.6195 64.8337 21.6464 64.7421C21.6733 64.6479 21.6868 64.5281 21.6868 64.3826V63.9705L21.1541 63.8493V63.025H22.9501L22.9461 65.8049H22.2275L22.1791 65.3766ZM29.5242 64.229V65.8049H28.1844V61.0692H28.7171C28.8462 61.0692 29.0385 61.0638 29.2942 61.0531C29.5498 61.0396 29.761 61.0328 29.928 61.0328C30.5091 61.0328 30.9423 61.1608 31.2275 61.4167C31.5153 61.6727 31.6594 62.0646 31.6594 62.5926C31.6594 62.905 31.5907 63.1826 31.4536 63.425C31.319 63.6674 31.14 63.86 30.9167 64.0027C31.0377 64.0323 31.1414 64.1011 31.2275 64.2088C31.3162 64.3167 31.3849 64.4444 31.4333 64.5927C31.4818 64.7381 31.5235 64.8864 31.5584 65.0372C31.5961 65.1853 31.6378 65.3321 31.6836 65.4776C31.7321 65.6231 31.7845 65.7321 31.841 65.8049H30.3517C30.322 65.7671 30.2992 65.6622 30.2831 65.4897C30.267 65.3146 30.244 65.1058 30.2144 64.8633C30.1876 64.6183 30.1485 64.4136 30.0975 64.2493C30.0919 64.2493 30.0854 64.2493 30.0772 64.2493C30.026 64.2493 29.9709 64.2493 29.9117 64.2493C29.8553 64.2465 29.8055 64.2439 29.7624 64.2411C29.7194 64.2384 29.6737 64.2358 29.6253 64.233C29.5794 64.2304 29.5459 64.229 29.5242 64.229ZM29.5242 63.4775H29.6534C29.7207 63.4775 29.7771 63.4747 29.823 63.4693C29.8686 63.464 29.9184 63.4546 29.9722 63.4411C30.0288 63.425 30.0745 63.4007 30.1096 63.3684C30.1471 63.336 30.1822 63.2942 30.2144 63.2432C30.2467 63.1919 30.271 63.1259 30.287 63.0451C30.3033 62.9644 30.3113 62.87 30.3113 62.7623V62.4431C30.3113 62.2086 30.2493 62.0457 30.1257 61.9541C30.0046 61.8599 29.8297 61.8128 29.601 61.8128H29.5242V63.4775ZM39.8033 65.8049H36.9417V61.0692H39.7428L39.662 62.0228L38.2777 61.9825V62.8956H39.3674V63.8411L38.2777 63.7603V64.8351L39.8033 64.7948V65.8049ZM47.8746 65.8049H45.0129V61.0692H47.8141L47.7333 62.0228L46.349 61.9825V62.8956H47.4387V63.8411L46.349 63.7603V64.8351L47.8746 64.7948V65.8049ZM54.3677 65.8049H53.0842V61.4491L52.8865 61.0692H54.3718L55.1144 62.6047L55.8248 64.136L55.6269 62.338V61.0692H56.9145V65.8049H55.6835L54.7229 63.9341L54.1296 62.7623L54.3677 64.3139V65.8049ZM62.3024 65.8049V61.0692H63.6385V64.722H64.8412V65.8049H62.3024ZM70.0667 65.8049V61.0692H71.4429V65.8049H70.0667ZM78.1205 65.8049H76.837V61.4491L76.6391 61.0692H78.1245L78.867 62.6047L79.5774 64.136L79.3797 62.338V61.0692H80.6672V65.8049H79.4361L78.4756 63.9341L77.8823 62.7623L78.1205 64.3139V65.8049ZM88.9168 65.8049H86.0553V61.0692H88.8562L88.7754 62.0228L87.3911 61.9825V62.8956H88.4809V63.8411L87.3911 63.7603V64.8351L88.9168 64.7948V65.8049Z" fill="#35D927"/>
</svg>
