<svg width="128" height="71" viewBox="0 0 128 71" fill="none" xmlns="http://www.w3.org/2000/svg">
<path d="M11.3678 55.4146H3.35222V27.0008H11.3678V38.25H17.5914V27.0008H25.6069V55.4146H17.5914V43.8261H11.3678V55.4146ZM37.0311 44.4321C37.0311 47.1151 37.233 48.9819 37.6365 50.0325C38.0563 51.0831 38.7828 51.6083 39.816 51.6083C40.5748 51.6083 41.1479 51.4225 41.5353 51.0507C41.9228 50.6628 42.2134 49.8789 42.4071 48.6991C42.6169 47.503 42.7219 45.7171 42.7219 43.3412V37.4984C42.7219 35.1871 42.4958 33.4658 42.0439 32.3344C41.5919 31.2031 40.8491 30.6374 39.816 30.6374C38.7828 30.6374 38.0563 31.195 37.6365 32.3102C37.233 33.4093 37.0311 35.4216 37.0311 38.3469V44.4321ZM39.3074 55.9238C37.9674 55.9238 36.7566 55.8025 35.675 55.5601C34.6095 55.3177 33.6893 54.9782 32.9143 54.5419C32.1394 54.1055 31.4614 53.5479 30.8802 52.869C30.3151 52.1902 29.855 51.4629 29.4999 50.6871C29.1608 49.9113 28.8863 49.0061 28.6765 47.9718C28.4667 46.9211 28.3214 45.8786 28.2406 44.8443C28.1598 43.7937 28.1195 42.6139 28.1195 41.3047C28.1195 39.3652 28.2164 37.6762 28.4101 36.2377C28.6199 34.7992 28.9994 33.4497 29.5483 32.189C30.0971 30.9122 30.8236 29.8777 31.7277 29.0858C32.648 28.2938 33.8264 27.6715 35.2633 27.219C36.7163 26.7665 38.4275 26.5401 40.3972 26.5401C41.7533 26.5401 42.9722 26.6695 44.0538 26.9281C45.1354 27.1705 46.0637 27.5099 46.8387 27.9463C47.6136 28.3827 48.2835 28.9484 48.8486 29.6434C49.4298 30.3383 49.8899 31.0819 50.2289 31.8738C50.584 32.6496 50.8667 33.5627 51.0765 34.6134C51.2863 35.664 51.4316 36.7065 51.5124 37.7408C51.5932 38.7752 51.6335 39.947 51.6335 41.2562C51.6335 43.1957 51.5285 44.8846 51.3187 46.3232C51.1088 47.7617 50.7293 49.1112 50.1805 50.3719C49.6317 51.6165 48.897 52.6347 47.9768 53.4266C47.0566 54.2024 45.87 54.8167 44.417 55.2692C42.9802 55.7056 41.2771 55.9238 39.3074 55.9238ZM62.1167 45.9595V55.4146H54.0769V27.0008H57.2734C58.0483 27.0008 59.2026 26.9684 60.7364 26.9038C62.2701 26.8229 63.5373 26.7826 64.5383 26.7826C68.0254 26.7826 70.6247 27.5503 72.3359 29.0858C74.0634 30.6213 74.9271 32.9729 74.9271 36.1407C74.9271 38.0157 74.5154 39.6803 73.692 41.135C72.8848 42.5896 71.8113 43.7452 70.4713 44.6019C71.1978 44.7797 71.8192 45.1918 72.3359 45.8383C72.8687 46.4847 73.2803 47.2526 73.5709 48.1415C73.8615 49.0142 74.1118 49.9031 74.3216 50.8083C74.5477 51.6972 74.7978 52.5781 75.0723 53.4509C75.3629 54.3237 75.6778 54.9782 76.0168 55.4146H67.081C66.9034 55.1883 66.7662 54.558 66.6693 53.5236C66.5725 52.473 66.4353 51.2204 66.2576 49.7658C66.0963 48.2951 65.8621 47.0666 65.5554 46.0807C65.523 46.0807 65.4827 46.0807 65.4343 46.0807C65.1276 46.0807 64.7965 46.0807 64.4414 46.0807C64.1024 46.0646 63.8037 46.0484 63.5454 46.0322C63.2872 46.0161 63.0127 45.9999 62.7221 45.9838C62.4476 45.9677 62.2459 45.9595 62.1167 45.9595ZM62.1167 41.4501H62.8916C63.2951 41.4501 63.6342 41.434 63.9087 41.4017C64.1832 41.3693 64.4817 41.3128 64.8047 41.232C65.1437 41.135 65.4182 40.9895 65.628 40.7956C65.8541 40.6016 66.0639 40.351 66.2576 40.044C66.4514 39.737 66.5967 39.3409 66.6935 38.856C66.7904 38.3712 66.8388 37.8054 66.8388 37.159V35.2437C66.8388 33.8376 66.4675 32.8597 65.7249 32.3102C64.9984 31.7444 63.949 31.4617 62.5768 31.4617H62.1167V41.4501ZM82.0658 55.4146V33.4254H76.3992V27.0008H95.9175V33.4254H90.2509V55.4146H82.0658Z" fill="white"/>
<path d="M12.1081 25.9756H3.45946V65.8049H12.1081V25.9756Z" fill="white"/>
<path d="M117.622 58.878H3.45946V67.5366H117.622V58.878Z" fill="white"/>
<path d="M100.093 52.8685L106.985 31.4398L101.841 30.3882L103.724 24.5364C104.795 24.7201 105.708 24.8325 106.462 24.8734C107.216 24.9144 108.039 24.8664 108.931 24.7295C109.823 24.5925 110.653 24.2737 111.419 23.7729C112.186 23.2722 112.903 22.5834 113.568 21.7063L119.633 23.6612L109.286 55.832L100.093 52.8685Z" fill="#35D927"/>
</svg>
